<?xml version="1.0" encoding="utf-8"?>
<!-- Generator: Adobe Illustrator 24.3.0, SVG Export Plug-In . SVG Version: 6.00 Build 0)  -->
<svg version="1.1" id="Layer_1" xmlns="http://www.w3.org/2000/svg" xmlns:xlink="http://www.w3.org/1999/xlink" x="0px" y="0px"
	 viewBox="0 0 340.1 98.4" style="enable-background:new 0 0 340.1 98.4;" xml:space="preserve">
<style type="text/css">
	.st0{fill:#C49A6C;}
</style>
<g>
	<path class="st0" d="M53.5,46l20.7,6.2L66.6,68l-13.8,8.6L36,78.6l-16.6-3.7l-8.5-6.1l-6.1-8.4L0,38.9l2.5-16.7l7.5-12.4L26.3,1
		l19.5-1l17.5,7.3l10.1,16L52.6,28l-8-9.7l-10.2-0.3l-8.4,7.4l-2.2,19.2l1.9,8.7l1.7,2.8l7.7,4.5l8.3-0.7l6.8-5.2L53.5,46L53.5,46z"
		/>
	<path class="st0" d="M79.8,21.9h19.8V31l4.2-6.5l5.6-3.3l6.6-0.2l7.2,2.6l-6.6,15.1l-11.1,0.5l-4.1,10.7l-0.4,27.3H79.8V21.9
		L79.8,21.9z"/>
	<path class="st0" d="M143.4,39.8l-20.2-2.1l3.6-8.7l6.8-5.2l31.9-2.4l5.8,1.5l5.5,3.3l5.4,11.1l3.1,39.9h-19.9l-2.3-6.8l-8,5.5
		l-9.9,2.5L135,77.8l-8.4-3.9l-4.9-8.7l1-8.7l6-6.9l33.1-9.3l-2.2-5.7l-6-1.6l-6.5,1.9L143.4,39.8L143.4,39.8z M161.8,51l-17.3,6.1
		l-0.5,7.6l7.2,1.9l8.2-4.4L161.8,51L161.8,51z"/>
	<path class="st0" d="M215.9,21.9H226v15.5h-10.1v39.7h-21.2V37.4h-7.9V21.9h7.9l1.9-13.8l7.7-6.8l26.3-0.4l-2.3,12.8L223,13
		l-4.1,0.8l-2.5,2.8L215.9,21.9L215.9,21.9z"/>
	<path class="st0" d="M259.4,0.9v21H271v15.5h-11.7l0.6,23.9l2.4,1.9l3.6,0l4.3-1.2l1.6,14.6l-21.2,1.4l-9.9-6.9l-2.6-33.8h-7.8
		V21.9h7.8V11.8L259.4,0.9L259.4,0.9z"/>
	<path class="st0" d="M275,21.9l22.6,0.8l10.7,37.4l11-38.2l20.7,0.4l-29.4,72.3l-6.4,3.6l-24.6,0.2l-1.7-14.8l11.9,1.3l5.1-2.2
		l3.2-5.4L275,21.9L275,21.9z"/>
</g>
</svg>
