<?xml version="1.0" encoding="utf-8"?>
<!-- Generator: Adobe Illustrator 24.3.0, SVG Export Plug-In . SVG Version: 6.00 Build 0)  -->
<svg version="1.1" id="Capa_1" xmlns="http://www.w3.org/2000/svg" xmlns:xlink="http://www.w3.org/1999/xlink" x="0px" y="0px"
	 viewBox="0 0 50 50" style="enable-background:new 0 0 50 50;" xml:space="preserve">
<g>
	<g>
		<path d="M46.4,32.1c-1,0-1.8,0.8-1.8,1.8v10.7c0,1-0.8,1.8-1.8,1.8H7.1c-1,0-1.8-0.8-1.8-1.8V33.9c0-1-0.8-1.8-1.8-1.8
			s-1.8,0.8-1.8,1.8v10.7c0,3,2.4,5.4,5.4,5.4h35.7c3,0,5.4-2.4,5.4-5.4V33.9C48.2,32.9,47.4,32.1,46.4,32.1z"/>
	</g>
</g>
<g>
	<g>
		<path d="M35.2,30.9c-0.7-0.7-1.8-0.7-2.5,0l-5.9,5.9v-35C26.8,0.8,26,0,25,0s-1.8,0.8-1.8,1.8v35l-5.9-5.9c-0.7-0.7-1.8-0.7-2.5,0
			c-0.7,0.7-0.7,1.8,0,2.5l8.9,8.9c0.7,0.7,1.8,0.7,2.5,0c0,0,0,0,0,0l8.9-8.9C35.9,32.7,35.9,31.6,35.2,30.9z"/>
	</g>
</g>
</svg>
