<?xml version="1.0" encoding="utf-8"?>
<!-- Generator: Adobe Illustrator 24.3.0, SVG Export Plug-In . SVG Version: 6.00 Build 0)  -->
<svg version="1.1" id="Layer_1" xmlns="http://www.w3.org/2000/svg" xmlns:xlink="http://www.w3.org/1999/xlink" x="0px" y="0px"
	 viewBox="0 0 56.7 56.7" style="enable-background:new 0 0 56.7 56.7;" xml:space="preserve">
<style type="text/css">
	.st0{fill:#FF0000;}
	.st1{fill:none;stroke:#FF0000;stroke-width:4;stroke-miterlimit:10;}
</style>
<desc>Created with Sketch.</desc>
<g>
	<path class="st0" d="M20,22.7c0-1.1,0.3-2.1,1-3.2c0.7-1.1,1.7-2,3-2.7c1.3-0.7,2.8-1.1,4.5-1.1c1.6,0,3,0.3,4.3,0.9
		c1.2,0.6,2.2,1.4,2.9,2.4c0.7,1,1,2.1,1,3.3c0,0.9-0.2,1.8-0.6,2.5c-0.4,0.7-0.8,1.3-1.4,1.8s-1.5,1.4-2.8,2.6
		c-0.4,0.3-0.7,0.6-0.9,0.9c-0.2,0.3-0.4,0.5-0.5,0.7c-0.1,0.2-0.2,0.4-0.3,0.6c-0.1,0.2-0.2,0.6-0.3,1.1c-0.2,1.2-0.9,1.7-2,1.7
		c-0.6,0-1.1-0.2-1.5-0.6c-0.4-0.4-0.6-0.9-0.6-1.7c0-0.9,0.1-1.7,0.4-2.4c0.3-0.7,0.7-1.3,1.1-1.8c0.5-0.5,1.1-1.1,1.9-1.8
		c0.7-0.6,1.2-1.1,1.5-1.4c0.3-0.3,0.6-0.7,0.8-1.1c0.2-0.4,0.3-0.8,0.3-1.3c0-0.9-0.3-1.6-1-2.2c-0.7-0.6-1.5-0.9-2.6-0.9
		c-1.2,0-2.1,0.3-2.7,0.9c-0.6,0.6-1.1,1.5-1.5,2.7c-0.4,1.3-1.1,1.9-2.1,1.9c-0.6,0-1.1-0.2-1.6-0.7C20.3,23.7,20,23.2,20,22.7z
		 M28.2,40.9c-0.7,0-1.3-0.2-1.8-0.7c-0.5-0.4-0.8-1-0.8-1.8c0-0.7,0.2-1.3,0.7-1.8c0.5-0.5,1.1-0.7,1.8-0.7c0.7,0,1.3,0.2,1.8,0.7
		c0.5,0.5,0.7,1.1,0.7,1.8c0,0.8-0.2,1.4-0.7,1.8S28.8,40.9,28.2,40.9z"/>
</g>
<circle class="st1" cx="28.4" cy="28.4" r="19.8"/>
</svg>
