<?xml version="1.0" encoding="utf-8"?>
<!-- Generator: Adobe Illustrator 24.3.0, SVG Export Plug-In . SVG Version: 6.00 Build 0)  -->
<svg version="1.1" id="Capa_1" xmlns="http://www.w3.org/2000/svg" xmlns:xlink="http://www.w3.org/1999/xlink" x="0px" y="0px"
	 viewBox="0 0 374.8 374.8" style="enable-background:new 0 0 374.8 374.8;" xml:space="preserve">
<style type="text/css">
	.st0{fill:#FF0000;}
</style>
<g>
	<g>
		<path class="st0" d="M302.7,296.5c-5.7,5.5-6.1,14.5-1,20.5l4.3,5c2.7,3.1,6.5,5,10.7,5.2c0.2,0,0.5,0,0.7,0
			c3.9,0,7.6-1.5,10.4-4.2c11.4-11,21.4-23.4,29.7-36.9c2.2-3.5,2.8-7.8,1.7-11.8c-1.1-4-3.7-7.4-7.4-9.3L346,262
			c-7-3.8-15.7-1.4-19.9,5.3C319.6,278,311.7,287.8,302.7,296.5z"/>
		<path class="st0" d="M194.9,353.4l0.1,6.6c0,4.1,1.8,8.1,4.8,10.9c2.8,2.6,6.4,4,10.2,4c0.3,0,0.7,0,1,0
			c7.2-0.5,14.5-1.4,21.6-2.8c8.4-1.6,16.8-3.7,24.8-6.4c3.9-1.3,7.1-4.2,8.9-7.9s1.9-8,0.3-11.9l-2.5-6.2
			c-2.9-7.4-11.1-11.2-18.6-8.7c-11.9,3.9-24.3,6.3-36.8,7.3C200.9,338.8,194.8,345.5,194.9,353.4z"/>
		<path class="st0" d="M85.5,317.7c-2.6,3.2-3.8,7.3-3.3,11.4s2.7,7.8,6,10.2c12.8,9.4,26.8,17,41.5,22.9c1.8,0.7,3.6,1,5.5,1
			c2.2,0,4.3-0.5,6.4-1.4c3.7-1.8,6.6-5,7.9-8.9l2.1-6.3c2.5-7.5-1.3-15.7-8.7-18.6c-11.6-4.6-22.6-10.7-32.8-18.1
			c-6.4-4.7-15.4-3.5-20.4,2.6L85.5,317.7z"/>
		<path class="st0" d="M18.8,221.2c-2.2,3.5-3,7.7-2,11.7c3.8,15.6,9.6,30.6,17.2,44.6c2,3.6,5.4,6.3,9.3,7.3
			c1.3,0.3,2.6,0.5,3.8,0.5c2.8,0,5.5-0.8,7.9-2.3l5.6-3.5c6.7-4.2,9.1-12.9,5.3-19.9c-6-11.1-10.5-22.9-13.6-35.2
			c-1.9-7.7-9.5-12.6-17.3-11.2l-6.5,1.2C24.6,215.4,21.1,217.8,18.8,221.2z"/>
		<path class="st0" d="M51.6,158.7c4.5-23.8,15-46.5,30.3-65.7c28.7-35.9,71.5-56.5,117.3-56.5c16,0,31.7,2.5,46.7,7.5l-13,13
			c-2.4,2.4-3.4,5.9-2.6,9.2s3.3,6,6.6,7L314,97.3c3.5,1.1,7.2,0.2,9.8-2.4s3.5-6.3,2.4-9.8L302,8c-1-3.3-3.7-5.7-7-6.6
			c-3.3-0.8-6.8,0.2-9.2,2.6l-11.7,11.7C250.6,5.4,225.1,0,199.3,0c-10,0-20.1,0.8-30,2.4c-45.8,7.4-87,31.5-116,67.7
			c-19.2,23.9-32.2,52.3-37.8,82.2c-0.3,1.1-0.4,2.3-0.4,3.5c0,8.3,6.7,15,15,15c0,0,0,0,0,0h6.7C44.1,170.9,50.2,165.7,51.6,158.7z
			"/>
	</g>
</g>
</svg>
