<?xml version="1.0" encoding="utf-8"?>
<!-- Generator: Adobe Illustrator 24.3.0, SVG Export Plug-In . SVG Version: 6.00 Build 0)  -->
<svg version="1.1" id="Layer_1" xmlns="http://www.w3.org/2000/svg" xmlns:xlink="http://www.w3.org/1999/xlink" x="0px" y="0px"
	 viewBox="0 0 50 50" style="enable-background:new 0 0 50 50;" xml:space="preserve">
<style type="text/css">
	.st0{fill:#FF0000;}
</style>
<g>
	<path class="st0" d="M26.6,50h-3.1c-2.5,0-4.6-2.1-4.6-4.6v-1.1c-1.1-0.3-2.1-0.8-3.1-1.3l-0.8,0.8c-1.8,1.8-4.7,1.8-6.5,0
		l-2.2-2.2c-1.8-1.8-1.8-4.7,0-6.5L7,34.3c-0.5-1-1-2.1-1.3-3.1H4.6c-2.5,0-4.6-2.1-4.6-4.6v-3.1c0-2.5,2.1-4.6,4.6-4.6h1.1
		C6,17.7,6.4,16.7,7,15.7l-0.8-0.8c-1.8-1.8-1.8-4.7,0-6.5l2.2-2.2c1.8-1.8,4.7-1.8,6.5,0L15.7,7c1-0.5,2.1-1,3.1-1.3V4.6
		c0-2.5,2.1-4.6,4.6-4.6h3.1c2.5,0,4.6,2.1,4.6,4.6v1.1C32.3,6,33.3,6.4,34.3,7l0.8-0.8c1.8-1.8,4.7-1.8,6.5,0l2.2,2.2
		c1.8,1.8,1.8,4.7,0,6.5L43,15.7c0.5,1,1,2.1,1.3,3.1h1.1c2.5,0,4.6,2.1,4.6,4.6v3.1c0,2.5-2.1,4.6-4.6,4.6h-1.1
		c-0.3,1.1-0.8,2.1-1.3,3.1l0.8,0.8c1.8,1.8,1.8,4.7,0,6.5l-2.2,2.2c-1.8,1.8-4.7,1.8-6.5,0L34.3,43c-1,0.5-2.1,1-3.1,1.3v1.1
		C31.2,47.9,29.1,50,26.6,50z M16.2,40c1.4,0.8,2.9,1.5,4.5,1.9c0.6,0.2,1.1,0.8,1.1,1.4v2.2c0,0.9,0.8,1.7,1.7,1.7h3.1
		c0.9,0,1.7-0.8,1.7-1.7v-2.2c0-0.7,0.5-1.3,1.1-1.4c1.6-0.4,3.1-1,4.5-1.9c0.6-0.3,1.3-0.2,1.8,0.2l1.5,1.5c0.7,0.7,1.7,0.6,2.4,0
		l2.2-2.2c0.6-0.6,0.7-1.7,0-2.4l-1.5-1.5c-0.5-0.5-0.6-1.2-0.2-1.8c0.8-1.4,1.5-2.9,1.9-4.5c0.2-0.6,0.8-1.1,1.4-1.1h2.2
		c0.9,0,1.7-0.8,1.7-1.7v-3.1c0-0.9-0.8-1.7-1.7-1.7h-2.2c-0.7,0-1.3-0.5-1.4-1.1c-0.4-1.6-1-3.1-1.9-4.5c-0.3-0.6-0.2-1.3,0.2-1.8
		l1.5-1.5c0.7-0.7,0.6-1.7,0-2.4l-2.2-2.2c-0.6-0.6-1.7-0.7-2.4,0l-1.5,1.5c-0.5,0.5-1.2,0.6-1.8,0.2c-1.4-0.8-2.9-1.5-4.5-1.9
		c-0.6-0.2-1.1-0.8-1.1-1.4V4.6c0-0.9-0.8-1.7-1.7-1.7h-3.1c-0.9,0-1.7,0.8-1.7,1.7v2.2c0,0.7-0.5,1.3-1.1,1.4
		c-1.6,0.4-3.1,1-4.5,1.9c-0.6,0.3-1.3,0.2-1.8-0.2l-1.5-1.5c-0.7-0.7-1.7-0.6-2.4,0l-2.2,2.2c-0.6,0.6-0.7,1.7,0,2.4l1.5,1.5
		c0.5,0.5,0.6,1.2,0.2,1.8c-0.8,1.4-1.5,2.9-1.9,4.5c-0.2,0.6-0.8,1.1-1.4,1.1H4.6c-0.9,0-1.7,0.8-1.7,1.7v3.1
		c0,0.9,0.8,1.7,1.7,1.7h2.2c0.7,0,1.3,0.5,1.4,1.1c0.4,1.6,1,3.1,1.9,4.5c0.3,0.6,0.2,1.3-0.2,1.8l-1.5,1.5c-0.7,0.7-0.6,1.7,0,2.4
		l2.2,2.2c0.6,0.6,1.7,0.7,2.4,0l1.5-1.5C14.8,39.8,15.5,39.5,16.2,40L16.2,40z"/>
	<path class="st0" d="M25,35.9c-6,0-10.9-4.9-10.9-10.9S19,14.1,25,14.1S35.9,19,35.9,25S31,35.9,25,35.9z M25,17.1
		c-4.4,0-7.9,3.6-7.9,7.9s3.6,7.9,7.9,7.9s7.9-3.6,7.9-7.9S29.4,17.1,25,17.1L25,17.1z"/>
</g>
</svg>
