<?xml version="1.0" encoding="utf-8"?>
<!-- Generator: Adobe Illustrator 24.3.0, SVG Export Plug-In . SVG Version: 6.00 Build 0)  -->
<svg version="1.1" id="Layer_1" focusable="false" xmlns="http://www.w3.org/2000/svg" xmlns:xlink="http://www.w3.org/1999/xlink"
	 x="0px" y="0px" viewBox="0 0 50 50" style="enable-background:new 0 0 50 50;" xml:space="preserve">
<style type="text/css">
	.st0{fill:#FF0000;}
</style>
<path class="st0" d="M25.7,0.1c0.2,0,0.5,0.1,0.6,0.4l4.2,6.9c0.1,0.1,0.1,0.2,0.1,0.4c0,0.1,0,0.2-0.1,0.4
	c-0.1,0.2-0.4,0.4-0.6,0.4h-2.8V27c3.1-2,8.3-3.2,8.3-5.4v-2.1h-2.1c-0.4,0-0.7-0.3-0.7-0.7v-6.9c0-0.4,0.3-0.7,0.7-0.7h6.9
	c0.4,0,0.7,0.3,0.7,0.7v6.9c0,0.4-0.3,0.7-0.7,0.7h-2.1v2.1c0,5.9-11.1,6.3-11.1,9.7v7.8c2.4,0.6,4.2,2.8,4.2,5.4
	c0,3.1-2.5,5.5-5.6,5.5s-5.5-2.5-5.5-5.5c0-2.6,1.8-4.7,4.2-5.4c0-3,0.7-3.4-4.7-5.8c-6.9-3.1-6.4-4.5-6.4-8.5
	c-1.6-0.6-2.8-2.1-2.8-3.9c0-2.3,1.9-4.2,4.2-4.2s4.2,1.9,4.2,4.2c0,1.8-1.2,3.3-2.8,3.9v2.3c0,2.3,5.2,3.4,8.3,5.4V8.4h-2.8
	c-0.3,0-0.5-0.1-0.6-0.4c-0.1-0.2-0.1-0.5,0-0.7l4.2-6.9C25.3,0.2,25.5,0.1,25.7,0.1L25.7,0.1z"/>
</svg>
