<?xml version="1.0" encoding="utf-8"?>
<!-- Generator: Adobe Illustrator 24.3.0, SVG Export Plug-In . SVG Version: 6.00 Build 0)  -->
<svg version="1.1" id="Layer_1" xmlns="http://www.w3.org/2000/svg" xmlns:xlink="http://www.w3.org/1999/xlink" x="0px" y="0px"
	 viewBox="0 0 512 512" style="enable-background:new 0 0 512 512;" xml:space="preserve">
<style type="text/css">
	.st0{fill:#FFFFFF;}
</style>
<g>
	<g>
		<g>
			<path class="st0" d="M358.5,435.4H255.1c9.6-9.6,187-187,197.1-197.1c20.3-20.3,20.3-53.4,0-73.7L340.6,53.1
				c-20.3-20.3-53.4-20.3-73.7,0L46.3,273.6c-20.4,20.4-20.4,53.4,0,73.7l111.6,111.6v0c10.1,10.1,23.2,15.1,36.4,15.2
				c0.1,0,0.3,0,0.4,0h163.7c10.7,0,19.4-8.7,19.4-19.4C377.8,444.1,369.2,435.4,358.5,435.4z M294.2,80.5c5.2-5.2,13.7-5.2,18.9,0
				L424.8,192c5.2,5.2,5.2,13.7,0,18.9l-96.6,96.6L197.7,177L294.2,80.5z M185.3,431.5L73.7,319.9c-5.2-5.2-5.2-13.7,0-18.9
				l96.6-96.6L300.8,335l-96.6,96.6C199,436.7,190.5,436.8,185.3,431.5z"/>
			<path class="st0" d="M461.6,435.4h-32.8c-10.7,0-19.4,8.7-19.4,19.4s8.7,19.4,19.4,19.4h32.8c10.7,0,19.4-8.7,19.4-19.4
				S472.3,435.4,461.6,435.4z"/>
			<path class="st0" d="M428.5,389.1c0-10.7-8.7-19.4-19.4-19.4h-32.8c-10.7,0-19.4,8.7-19.4,19.4s8.7,19.4,19.4,19.4h32.8
				C419.9,408.5,428.5,399.8,428.5,389.1z"/>
		</g>
	</g>
</g>
</svg>
