<?xml version="1.0" encoding="utf-8"?>
<!-- Generator: Adobe Illustrator 24.3.0, SVG Export Plug-In . SVG Version: 6.00 Build 0)  -->
<svg version="1.1" id="Capa_1" xmlns="http://www.w3.org/2000/svg" xmlns:xlink="http://www.w3.org/1999/xlink" x="0px" y="0px"
	 viewBox="0 0 276.2 276.2" style="enable-background:new 0 0 276.2 276.2;" xml:space="preserve">
<style type="text/css">
	.st0{fill:#FF0000;}
</style>
<path class="st0" d="M273.1,101.4c-3.3-4.7-8.9-7.3-15.3-7.3h-24.3V67.6c0-10.2-8.3-18.5-18.5-18.5h-85.3c-3.6,0-9.3-2.9-11.4-5.8
	l-6.4-8.7c-5-6.8-15.1-12-23.5-12H58.7c-9.3,0-18.6,6.6-21.7,15.4l-2,5.8c-1,2.7-4.7,5.4-7.6,5.4h-8.9C8.3,49.1,0,57.4,0,67.6v167.1
	c0,0.9,0.2,1.7,0.4,2.5c0.2,3.3,1.2,6.4,3.1,9.1c3.3,4.7,8.9,7.3,15.3,7.3h188.5c11.4,0,23.3-8.4,27-19.2l40.7-116.2
	C277.1,112.2,276.4,106,273.1,101.4z M18.5,64.1h8.9c9.3,0,18.6-6.6,21.7-15.4l2-5.8c1-2.7,4.7-5.4,7.6-5.4h29.6
	c3.6,0,9.3,2.9,11.4,5.8l6.4,8.7c5,6.8,15.1,12,23.5,12H215c1.9,0,3.5,1.6,3.5,3.5v26.5H69.3c-11.4,0-23.3,8.4-27,19.2l-27.3,78
	V67.6C15,65.7,16.6,64.1,18.5,64.1z M260.8,113.2l-40.7,116.2c-1.7,4.8-7.8,9.1-12.9,9.1H18.8c-1.4,0-2.6-0.4-3-1
	c-0.4-0.6-0.4-1.8,0.1-3.2l40.7-116.2c1.7-4.8,7.8-9.1,12.9-9.1h188.5c1.4,0,2.6,0.4,3,1C261.3,110.7,261.3,111.9,260.8,113.2z"/>
</svg>
