<?xml version="1.0" encoding="utf-8"?>
<!-- Generator: Adobe Illustrator 24.3.0, SVG Export Plug-In . SVG Version: 6.00 Build 0)  -->
<svg version="1.1" id="Capa_1" xmlns="http://www.w3.org/2000/svg" xmlns:xlink="http://www.w3.org/1999/xlink" x="0px" y="0px"
	 viewBox="0 0 56.7 56.7" style="enable-background:new 0 0 56.7 56.7;" xml:space="preserve">
<style type="text/css">
	.st0{fill:#FF0000;}
</style>
<g>
	<g>
		<g>
			<path class="st0" d="M38.7,13.7V4.9c0-2.7-2.2-4.9-4.9-4.9H22.9C20.2,0,18,2.2,18,4.9v8.7c-2.4,0.3-4.4,2.4-4.4,4.9v30
				c0,4.5,3.7,8.2,8.2,8.2h13.1c4.5,0,8.2-3.7,8.2-8.2v-30C43.1,16,41.2,13.9,38.7,13.7z M21.3,4.9c0-0.9,0.7-1.6,1.6-1.6h10.9
				c0.9,0,1.6,0.7,1.6,1.6v8.7H21.3V4.9z M39.8,48.5c0,2.7-2.2,4.9-4.9,4.9H21.8c-2.7,0-4.9-2.2-4.9-4.9v-30c0-0.9,0.7-1.6,1.6-1.6
				h19.6c0.9,0,1.6,0.7,1.6,1.6L39.8,48.5L39.8,48.5z"/>
		</g>
	</g>
	<g>
		<g>
			<path class="st0" d="M25.1,5.7c-0.9,0-1.6,0.7-1.6,1.6v2.2c0,0.9,0.7,1.6,1.6,1.6s1.6-0.7,1.6-1.6V7.4C26.7,6.4,26,5.7,25.1,5.7z
				"/>
		</g>
	</g>
	<g>
		<g>
			<path class="st0" d="M31.6,5.7c-0.9,0-1.6,0.7-1.6,1.6v2.2c0,0.9,0.7,1.6,1.6,1.6s1.6-0.7,1.6-1.6V7.4
				C33.3,6.4,32.5,5.7,31.6,5.7z"/>
		</g>
	</g>
	<g>
		<g>
			<path class="st0" d="M33.8,23.7c-0.9,0-1.6,0.7-1.6,1.6v3.6L30,30.7v-7.5c0-0.9-0.7-1.6-1.6-1.6s-1.6,0.7-1.6,1.6v8.5l-2.2-0.9
				v-2.2c0-0.9-0.7-1.6-1.6-1.6s-1.6,0.7-1.6,1.6v3.3c0,0.7,0.4,1.3,1,1.5l4.4,1.7v6.4c-1.3,0.6-2.2,1.9-2.2,3.4
				c0,2.1,1.7,3.8,3.8,3.8s3.8-1.7,3.8-3.8c0-1.5-0.9-2.8-2.2-3.4v-6.6l4.8-3.9c0.4-0.3,0.6-0.8,0.6-1.3v-4.4
				C35.4,24.4,34.7,23.7,33.8,23.7z"/>
		</g>
	</g>
</g>
</svg>
