<?xml version="1.0" encoding="utf-8"?>
<!-- Generator: Adobe Illustrator 24.3.0, SVG Export Plug-In . SVG Version: 6.00 Build 0)  -->
<svg version="1.1" id="Capa_1" xmlns="http://www.w3.org/2000/svg" xmlns:xlink="http://www.w3.org/1999/xlink" x="0px" y="0px"
	 viewBox="0 0 512 512" style="enable-background:new 0 0 512 512;" xml:space="preserve">
<style type="text/css">
	.st0{fill:#FF0000;}
</style>
<g>
	<g>
		<path class="st0" d="M438.3,0H60C26.9,0,0,26.9,0,60v392c0,33.1,26.9,60,60,60h392c33.1,0,60-26.9,60-60V73.7L438.3,0z M120,40
			h230v118H120V40z M392,472H120V314h272V472z M472,452c0,11-9,20-20,20h-20V274H80v198H60c-11,0-20-9-20-20V60c0-11,9-20,20-20h20
			v158h310V40h31.7L472,90.3V452z"/>
	</g>
</g>
<g>
	<g>
		<rect x="274" y="59" class="st0" width="40" height="79"/>
	</g>
</g>
</svg>
