<?xml version="1.0" encoding="utf-8"?>
<!-- Generator: Adobe Illustrator 24.3.0, SVG Export Plug-In . SVG Version: 6.00 Build 0)  -->
<svg version="1.1" id="Capa_1" xmlns="http://www.w3.org/2000/svg" xmlns:xlink="http://www.w3.org/1999/xlink" x="0px" y="0px"
	 viewBox="0 0 512 512" style="enable-background:new 0 0 512 512;" xml:space="preserve">
<style type="text/css">
	.st0{fill:#A5FFB5;}
</style>
<g>
	<g>
		<path class="st0" d="M349.5,123.4v-79c0-24.4-19.9-44.3-44.3-44.3h-98.5c-24.4,0-44.3,19.9-44.3,44.3v79
			c-22.1,2.5-39.4,21.3-39.4,44v270.8c0,40.7,33.1,73.8,73.8,73.8h118.2c40.7,0,73.8-33.1,73.8-73.8V167.4
			C388.9,144.6,371.7,125.8,349.5,123.4z M192,44.3c0-8.1,6.6-14.8,14.8-14.8h98.5c8.1,0,14.8,6.6,14.8,14.8v78.8H192V44.3z
			 M359.4,438.2c0,24.4-19.9,44.3-44.3,44.3H196.9c-24.4,0-44.3-19.9-44.3-44.3V167.4c0-8.1,6.6-14.8,14.8-14.8h177.2
			c8.1,0,14.8,6.6,14.8,14.8L359.4,438.2L359.4,438.2z"/>
	</g>
</g>
<g>
	<g>
		<path class="st0" d="M226.5,51.7c-8.2,0-14.8,6.6-14.8,14.8v19.7c0,8.2,6.6,14.8,14.8,14.8s14.8-6.6,14.8-14.8V66.5
			C241.2,58.3,234.6,51.7,226.5,51.7z"/>
	</g>
</g>
<g>
	<g>
		<path class="st0" d="M285.5,51.7c-8.2,0-14.8,6.6-14.8,14.8v19.7c0,8.2,6.6,14.8,14.8,14.8s14.8-6.6,14.8-14.8V66.5
			C300.3,58.3,293.7,51.7,285.5,51.7z"/>
	</g>
</g>
<g>
	<g>
		<path class="st0" d="M305.2,214.2c-8.2,0-14.8,6.6-14.8,14.8v32.3l-19.7,15.9v-67.9c0-8.2-6.6-14.8-14.8-14.8
			c-8.2,0-14.8,6.6-14.8,14.8v76.5l-19.7-7.8v-19.5c0-8.2-6.6-14.8-14.8-14.8s-14.8,6.6-14.8,14.8V288c0,6.1,3.7,11.5,9.3,13.7
			l39.9,15.8V375c-11.6,5.5-19.7,17.4-19.7,31.1c0,19,15.5,34.5,34.5,34.5s34.5-15.5,34.5-34.5c0-13.7-8.1-25.6-19.7-31.1v-59.9
			l43.7-35.3c3.5-2.8,5.5-7,5.5-11.5v-39.4C320,220.8,313.4,214.2,305.2,214.2z"/>
	</g>
</g>
</svg>
