<?xml version="1.0" encoding="utf-8"?>
<!-- Generator: Adobe Illustrator 24.3.0, SVG Export Plug-In . SVG Version: 6.00 Build 0)  -->
<svg version="1.1" id="Layer_1" xmlns="http://www.w3.org/2000/svg" xmlns:xlink="http://www.w3.org/1999/xlink" x="0px" y="0px"
	 viewBox="0 0 534.9 98.4" style="enable-background:new 0 0 534.9 98.4;" xml:space="preserve">
<style type="text/css">
	.st0{fill:#A38CC2;}
	.st1{fill:#C49A6C;}
</style>
<g>
	<path class="st0" d="M344.9,7.3h40.4c6.7,0,11.9,1.7,15.5,5c3.6,3.3,5.4,7.5,5.4,12.4c0,4.1-1.3,7.7-3.9,10.6
		c-1.7,2-4.2,3.5-7.5,4.7c5,1.2,8.7,3.3,11.1,6.2c2.4,2.9,3.6,6.6,3.6,11.1c0,3.6-0.8,6.9-2.5,9.8c-1.7,2.9-4,5.2-6.9,6.9
		c-1.8,1-4.5,1.8-8.2,2.3c-4.9,0.6-8.1,1-9.7,1h-37.3V7.3z M366.7,34.7h9.4c3.4,0,5.7-0.6,7-1.7c1.3-1.2,2-2.8,2-5
		c0-2-0.7-3.6-2-4.8c-1.3-1.1-3.6-1.7-6.9-1.7h-9.5V34.7z M366.7,62.2h11c3.7,0,6.3-0.7,7.9-2c1.5-1.3,2.3-3.1,2.3-5.3
		c0-2.1-0.8-3.7-2.3-5c-1.5-1.3-4.2-1.9-7.9-1.9h-11V62.2z"/>
	<path class="st0" d="M414.3,7.3h19.4v13.2h-19.4V7.3z M414.3,26.5h19.4v50.6h-19.4V26.5z"/>
	<path class="st0" d="M466.5,7.3v19.3h10.7v14.2h-10.7v17.9c0,2.2,0.2,3.6,0.6,4.3c0.6,1.1,1.7,1.6,3.3,1.6c1.4,0,3.4-0.4,6-1.2
		l1.4,13.4c-4.8,1-9.3,1.6-13.4,1.6c-4.8,0-8.4-0.6-10.7-1.9c-2.3-1.2-4-3.1-5.1-5.6c-1.1-2.5-1.6-6.6-1.6-12.3V40.7h-7.2V26.5h7.2
		v-9.3L466.5,7.3z"/>
	<path class="st0" d="M481,63.1l19.3-1.8c0.8,2.3,1.9,3.9,3.3,4.9c1.4,1,3.3,1.5,5.7,1.5c2.6,0,4.6-0.6,6.1-1.7
		c1.1-0.8,1.7-1.9,1.7-3.1c0-1.4-0.7-2.5-2.2-3.2c-1-0.5-3.8-1.2-8.3-2c-6.7-1.2-11.4-2.3-14-3.3c-2.6-1-4.8-2.7-6.6-5.1
		c-1.8-2.4-2.7-5.1-2.7-8.1c0-3.3,1-6.2,2.9-8.6c1.9-2.4,4.6-4.2,8-5.4c3.4-1.2,8-1.8,13.7-1.8c6,0,10.5,0.5,13.4,1.4
		c2.9,0.9,5.3,2.4,7.2,4.3c1.9,1.9,3.5,4.6,4.8,7.9l-18.4,1.8c-0.5-1.6-1.3-2.8-2.4-3.6c-1.5-1-3.4-1.5-5.5-1.5
		c-2.2,0-3.8,0.4-4.8,1.2c-1,0.8-1.5,1.7-1.5,2.8c0,1.2,0.6,2.2,1.9,2.8c1.3,0.6,4,1.2,8.3,1.7c6.5,0.7,11.3,1.7,14.4,3
		c3.1,1.3,5.6,3.2,7.2,5.6c1.7,2.4,2.5,5.1,2.5,8c0,2.9-0.9,5.8-2.6,8.5c-1.8,2.8-4.5,5-8.3,6.6c-3.8,1.6-9,2.5-15.5,2.5
		c-9.3,0-15.8-1.3-19.8-4C484.6,71.7,482.1,68,481,63.1z"/>
</g>
<g>
	<path class="st1" d="M53.5,46l20.7,6.2L66.6,68l-13.8,8.6L36,78.6l-16.6-3.7l-8.5-6.1l-6.1-8.4L0,38.9l2.5-16.7l7.5-12.4L26.3,1
		l19.5-1l17.5,7.3l10.1,16L52.6,28l-8-9.7l-10.2-0.3l-8.4,7.4l-2.2,19.2l1.9,8.7l1.7,2.8l7.7,4.5l8.3-0.7l6.8-5.2L53.5,46L53.5,46z"
		/>
	<path class="st1" d="M79.8,21.9h19.8V31l4.2-6.5l5.6-3.3l6.6-0.2l7.2,2.6l-6.6,15.1l-11.1,0.5l-4.1,10.7l-0.4,27.3H79.8V21.9
		L79.8,21.9z"/>
	<path class="st1" d="M143.4,39.8l-20.2-2.1l3.6-8.7l6.8-5.2l31.9-2.4l5.8,1.5l5.5,3.3l5.4,11.1l3.1,39.9h-19.9l-2.3-6.8l-8,5.5
		l-9.9,2.5L135,77.8l-8.4-3.9l-4.9-8.7l1-8.7l6-6.9l33.1-9.3l-2.2-5.7l-6-1.6l-6.5,1.9L143.4,39.8L143.4,39.8z M161.8,51l-17.3,6.1
		l-0.5,7.6l7.2,1.9l8.2-4.4L161.8,51L161.8,51z"/>
	<path class="st1" d="M215.9,21.9H226v15.5h-10.1v39.7h-21.2V37.4h-7.9V21.9h7.9l1.9-13.8l7.7-6.8l26.3-0.4l-2.3,12.8L223,13
		l-4.1,0.8l-2.5,2.8L215.9,21.9L215.9,21.9z"/>
	<path class="st1" d="M259.4,0.9v21H271v15.5h-11.7l0.6,23.9l2.4,1.9l3.6,0l4.3-1.2l1.6,14.6l-21.2,1.4l-9.9-6.9l-2.6-33.8h-7.8
		V21.9h7.8V11.8L259.4,0.9L259.4,0.9z"/>
	<path class="st1" d="M275,21.9l22.6,0.8l10.7,37.4l11-38.2l20.7,0.4l-29.4,72.3l-6.4,3.6l-24.6,0.2l-1.7-14.8l11.9,1.3l5.1-2.2
		l3.2-5.4L275,21.9L275,21.9z"/>
</g>
</svg>
