<?xml version="1.0" encoding="utf-8"?>
<!-- Generator: Adobe Illustrator 24.3.0, SVG Export Plug-In . SVG Version: 6.00 Build 0)  -->
<svg version="1.1" id="Capa_1" xmlns="http://www.w3.org/2000/svg" xmlns:xlink="http://www.w3.org/1999/xlink" x="0px" y="0px"
	 viewBox="0 0 512 512" style="enable-background:new 0 0 512 512;" xml:space="preserve">
<style type="text/css">
	.st0{fill:#FFFFFF;}
</style>
<g>
	<path class="st0" d="M422.8,130.3l-41.1-41.1c-8.4-8.4-19.9-13.2-31.8-13.2h-26.4v78.8c0,6.2-5,11.2-11.2,11.2h-180
		c-6.2,0-11.2-5-11.2-11.2V76H98.5C86.1,76,76,86.1,76,98.5v315c0,12.4,10.1,22.5,22.5,22.5h315c12.4,0,22.5-10.1,22.5-22.5V162.1
		C436,150.2,431.3,138.8,422.8,130.3z M391,391H121V256h270V391z"/>
	<rect x="233.5" y="76" class="st0" width="45" height="67.5"/>
</g>
</svg>
