<?xml version="1.0" encoding="utf-8"?>
<!-- Generator: Adobe Illustrator 24.3.0, SVG Export Plug-In . SVG Version: 6.00 Build 0)  -->
<svg version="1.1" id="Capa_1" xmlns="http://www.w3.org/2000/svg" xmlns:xlink="http://www.w3.org/1999/xlink" x="0px" y="0px"
	 viewBox="0 0 512 512" style="enable-background:new 0 0 512 512;" xml:space="preserve">
<style type="text/css">
	.st0{fill:#87FFAD;}
</style>
<g>
	<polygon class="st0" points="256,150.8 256,218.1 304.1,188.9 	"/>
	<path class="st0" d="M256,0C150.1,0,64,86.1,64,192v128c0,105.9,86.1,192,192,192s192-86.1,192-192V192C448,86.1,361.9,0,256,0z
		 M354.7,335.9l-106.7,86.1c-9.2,7.4-22.6,6-30-3.2c-3.1-3.8-4.7-8.5-4.7-13.4v-97.8l-27.2,27.2c-8.6,8-22.1,7.5-30.2-1.1
		c-7.6-8.2-7.6-20.9,0-29.1l48.6-48.6l-49.1-49.7c-8.5-8.1-8.9-21.6-0.7-30.2s21.6-8.9,30.2-0.7c0.3,0.3,0.6,0.6,0.9,0.9l27.5,27.8
		v-97.4c0-11.8,9.6-21.3,21.4-21.3c4.8,0,9.4,1.6,13.2,4.6l106.7,84.6c9.2,7.3,10.8,20.7,3.5,30c-1.6,2-3.5,3.7-5.7,5l-75.8,46
		l75.7,45.5c10.1,6.1,13.4,19.2,7.3,29.3C358.3,332.4,356.7,334.3,354.7,335.9L354.7,335.9z"/>
	<polygon class="st0" points="256,360.7 304.2,321.8 256,292.9 	"/>
</g>
</svg>
